# xmcd CD database file
#
# Track frame offsets:
#	150
#	11558
#	25685
#	39910
#	55937
#	71952
#	82532
#	94425
#	106303
#	129535
#	160655
#	188908
#	201495
#	216035
#	230420
#	249866
#	272275
#	286666
#	311394
#
# Disc length: 4291 seconds
#
# Revision: 0
# Processed by: cddbd v1.5.1PL0 Copyright (c) Steve Scherf et al.
# Submitted via: CDex 1.51
#
DISCID=f410c113
DTITLE=Vaché - Yesterday
DYEAR=1900
DGENRE=Blues
TTITLE0=Fly Me ToThe Moon
TTITLE1=Innamorarmidite
TTITLE2=Tombe La Neige
TTITLE3=The House Of The Rising Sun
TTITLE4=La Nave Del Olvido (Espera)
TTITLE5=Heir Encore
TTITLE6=Yesterday
TTITLE7=And I Love Her
TTITLE8=Historia D'un Amor
TTITLE9=Portofino
TTITLE10=Guarda Che Luna
TTITLE11=Aline
TTITLE12=The Way It Used To Be
TTITLE13=Et Si Tu N'existais Pas
TTITLE14=Brown Eyes
TTITLE15=Ho Capito Che Ti Amo
TTITLE16=Je T'attends
TTITLE17=Baila Morena
TTITLE18=Una Maman
EXTD=
EXTT0=
EXTT1=
EXTT2=
EXTT3=
EXTT4=
EXTT5=
EXTT6=
EXTT7=
EXTT8=
EXTT9=
EXTT10=
EXTT11=
EXTT12=
EXTT13=
EXTT14=
EXTT15=
EXTT16=
EXTT17=
EXTT18=
PLAYORDER=
